<svg width="118" height="39" viewBox="0 0 118 39" fill="none" xmlns="http://www.w3.org/2000/svg">
<path d="M18.6672 29.9208C17.1409 29.9208 15.732 29.6681 14.4406 29.1626C13.1491 28.6572 12.024 27.9365 11.0651 27.0005C10.1259 26.0645 9.39211 24.96 8.86378 23.687C8.35502 22.3954 8.10064 20.982 8.10064 19.447C8.10064 17.4065 8.5507 15.6187 9.45081 14.0837C10.3509 12.5299 11.5935 11.3225 13.1785 10.4614C14.783 9.58152 16.6028 9.1416 18.6378 9.1416C20.712 9.1416 22.5416 9.58152 24.1266 10.4614C25.7311 11.3225 26.9834 12.5299 27.8836 14.0837C28.7837 15.6374 29.2337 17.4346 29.2337 19.475C29.2337 21.0101 28.9696 22.4141 28.4412 23.687C27.9325 24.96 27.1987 26.0645 26.2399 27.0005C25.3006 27.9365 24.1853 28.6572 22.8938 29.1626C21.6023 29.6681 20.1935 29.9208 18.6672 29.9208ZM18.6378 26.9443C19.9684 26.9443 21.1327 26.6261 22.1307 25.9896C23.1482 25.3531 23.9407 24.4733 24.5081 23.3501C25.0756 22.2082 25.3593 20.8978 25.3593 19.4189C25.3593 17.9587 25.0756 16.6858 24.5081 15.6C23.9602 14.4955 23.1775 13.6438 22.16 13.0447C21.1621 12.427 19.988 12.1181 18.6378 12.1181C17.3072 12.1181 16.1332 12.427 15.1157 13.0447C14.1177 13.6438 13.3448 14.4862 12.7969 15.5719C12.249 16.6577 11.975 17.94 11.975 19.4189C11.975 20.9165 12.249 22.2269 12.7969 23.3501C13.3643 24.4733 14.1471 25.3531 15.145 25.9896C16.1625 26.6261 17.3268 26.9443 18.6378 26.9443Z" fill="white"/>
<path d="M32.2847 29.64V15.3192H35.8949V18.773H35.983V29.64H32.2847ZM35.983 22.1707L35.6014 18.773C35.9536 17.5562 36.5504 16.6296 37.3918 15.9931C38.2332 15.3566 39.241 15.0384 40.415 15.0384C40.826 15.0384 41.1195 15.0758 41.2956 15.1507V18.4922C41.1977 18.4548 41.0608 18.4361 40.8847 18.4361C40.7086 18.4174 40.4933 18.408 40.2389 18.408C38.8105 18.408 37.7441 18.7075 37.0396 19.3066C36.3352 19.9056 35.983 20.8603 35.983 22.1707Z" fill="white"/>
<path d="M52.2627 29.9208C50.8343 29.9208 49.6602 29.6026 48.7406 28.9661C47.8404 28.3109 47.2828 27.4123 47.0675 26.2704L47.3317 26.2423V29.64H43.7214V9.4224H47.4197V18.5484L47.1556 18.4922C47.4099 17.4252 48.0068 16.5828 48.946 15.965C49.9048 15.3473 51.0887 15.0384 52.4975 15.0384C53.8281 15.0384 54.9826 15.3473 55.961 15.965C56.959 16.5641 57.7319 17.4158 58.2798 18.5203C58.8277 19.6248 59.1016 20.9258 59.1016 22.4234C59.1016 23.9398 58.8179 25.2595 58.2504 26.3827C57.683 27.5059 56.8905 28.3764 55.873 28.9942C54.8554 29.6119 53.652 29.9208 52.2627 29.9208ZM51.3235 27.0005C52.5171 27.0005 53.4661 26.6074 54.1706 25.8211C54.875 25.0162 55.2272 23.893 55.2272 22.4515C55.2272 21.0101 54.8652 19.8962 54.1412 19.11C53.4368 18.3238 52.4878 17.9306 51.2941 17.9306C50.1201 17.9306 49.171 18.3331 48.447 19.1381C47.723 19.9243 47.361 21.0382 47.361 22.4796C47.361 23.921 47.723 25.0349 48.447 25.8211C49.171 26.6074 50.1299 27.0005 51.3235 27.0005Z" fill="white"/>
<path d="M61.4754 24.6218H62.278C62.4118 25.1702 62.5646 25.7095 62.7366 26.2397C62.9086 26.7698 63.1475 27.236 63.4532 27.6382C63.7781 28.0587 64.1889 28.3969 64.6858 28.6528C65.1826 28.8905 65.8323 29.0093 66.6349 29.0093C68.1063 29.0093 69.3101 28.6345 70.2465 27.885C71.1828 27.1355 71.651 26.194 71.651 25.0605C71.651 24.4024 71.5268 23.8266 71.2784 23.333C71.03 22.8211 70.7051 22.3732 70.3038 21.9893C69.8834 21.6054 69.3961 21.258 68.842 20.9473C68.3069 20.6365 67.7432 20.3257 67.1508 20.0149C66.5393 19.7224 65.9374 19.3934 65.345 19.0277C64.7526 18.6621 64.208 18.2508 63.7112 17.7937C63.2335 17.3184 62.8417 16.7883 62.536 16.2033C62.2493 15.6 62.106 14.9236 62.106 14.1741C62.106 13.2052 62.2685 12.3642 62.5933 11.6512C62.9182 10.9383 63.3672 10.3533 63.9405 9.89625C64.5138 9.42094 65.1826 9.07359 65.9469 8.85422C66.7113 8.61656 67.533 8.49773 68.412 8.49773C68.6987 8.49773 68.9757 8.51602 69.2433 8.55258C69.5108 8.57086 69.7783 8.58914 70.0458 8.60742C70.3134 8.64398 70.5809 8.68969 70.8484 8.74453C71.1351 8.78109 71.4408 8.81766 71.7657 8.85422L72.2529 12.6384H71.5077C71.3166 11.5416 70.9822 10.7189 70.5045 10.1705C70.0267 9.62203 69.1859 9.34781 67.9821 9.34781C66.4916 9.34781 65.3737 9.73172 64.6284 10.4995C63.9023 11.2491 63.5392 12.1448 63.5392 13.1869C63.5392 13.845 63.6921 14.4391 63.9978 14.9693C64.3036 15.4812 64.6953 15.9473 65.173 16.3678C65.6699 16.7883 66.224 17.163 66.8355 17.4921C67.447 17.8212 68.0681 18.132 68.6987 18.4245C69.3101 18.7352 69.893 19.0643 70.4471 19.4116C71.0204 19.7407 71.5268 20.1155 71.9663 20.5359C72.4058 20.9747 72.7593 21.4774 73.0269 22.0441C73.2944 22.5926 73.4281 23.2233 73.4281 23.9362C73.4281 24.9234 73.2179 25.7918 72.7975 26.5413C72.3963 27.2726 71.8708 27.8941 71.221 28.406C70.5522 28.8996 69.7974 29.2744 68.9566 29.5303C68.1349 29.768 67.3037 29.8868 66.4629 29.8868C65.6794 29.8868 64.9151 29.8137 64.1698 29.6674C63.4437 29.5212 62.7748 29.3109 62.1634 29.0367L61.4754 24.6218Z" fill="white"/>
<path d="M77.785 11.3222C77.785 10.8469 77.7563 10.4721 77.699 10.1979C77.6608 9.90539 77.5748 9.67687 77.441 9.51234C77.3073 9.36609 77.1066 9.27469 76.8391 9.23812C76.5907 9.20156 76.2658 9.18328 75.8645 9.18328V8.63484C76.476 8.52516 77.0684 8.36062 77.6417 8.14125C78.2341 7.90359 78.75 7.59281 79.1895 7.20891H79.7055C79.6481 7.7025 79.6099 8.23266 79.5908 8.79937C79.5717 9.34781 79.5621 9.84141 79.5621 10.2802V19.0552C79.8488 18.7444 80.1736 18.4153 80.5367 18.068C80.9189 17.7206 81.3202 17.3916 81.7406 17.0808C82.1801 16.7883 82.6387 16.5415 83.1164 16.3404C83.6133 16.1393 84.1197 16.0387 84.6356 16.0387C85.8204 16.0387 86.7472 16.4592 87.416 17.3002C88.0848 18.1411 88.4192 19.1923 88.4192 20.4537V26.5962C88.4192 27.0166 88.4287 27.364 88.4479 27.6382C88.4861 27.9124 88.5721 28.1318 88.7058 28.2963C88.8396 28.4609 89.0498 28.5797 89.3364 28.6528C89.6231 28.7077 90.0148 28.7351 90.5116 28.7351V29.4206C90.2441 29.4206 89.9861 29.4206 89.7377 29.4206C89.5084 29.4206 89.2791 29.4115 89.0498 29.3932C88.8205 29.3932 88.5816 29.3932 88.3332 29.3932C88.0848 29.3749 87.8173 29.3658 87.5306 29.3658C87.244 29.3658 86.9765 29.3749 86.728 29.3932C86.4987 29.3932 86.2694 29.3932 86.0401 29.3932C85.8108 29.3932 85.5719 29.4023 85.3235 29.4206C85.0942 29.4206 84.8458 29.4206 84.5783 29.4206V28.7351C84.9987 28.7351 85.3426 28.7168 85.6102 28.6802C85.8968 28.6437 86.1166 28.5523 86.2694 28.406C86.4223 28.2598 86.5274 28.0495 86.5847 27.7753C86.6421 27.4828 86.6707 27.0898 86.6707 26.5962V22.1538C86.6707 21.258 86.6134 20.5268 86.4987 19.9601C86.4032 19.3751 86.2312 18.9089 85.9828 18.5616C85.7535 18.2142 85.4382 17.9766 85.0369 17.8486C84.6547 17.7023 84.177 17.6292 83.6037 17.6292C82.8967 17.6292 82.161 17.8852 81.3966 18.397C80.6323 18.8906 80.0208 19.4391 79.5621 20.0423V26.5962C79.5621 27.4554 79.6768 28.0312 79.9061 28.3237C80.1545 28.598 80.7374 28.7351 81.6546 28.7351V29.4206C81.368 29.4206 81.11 29.4206 80.8807 29.4206C80.6514 29.4206 80.4221 29.4115 80.1927 29.3932C79.9634 29.3932 79.7246 29.3932 79.4762 29.3932C79.2468 29.3749 78.9984 29.3658 78.7309 29.3658C78.4443 29.3658 78.1767 29.3749 77.9283 29.3932C77.699 29.3932 77.4697 29.3932 77.2404 29.3932C76.992 29.3932 76.7436 29.4023 76.4951 29.4206C76.2658 29.4206 76.0174 29.4206 75.7499 29.4206V28.7351C76.6098 28.7351 77.164 28.598 77.4124 28.3237C77.6608 28.0495 77.785 27.4737 77.785 26.5962V11.3222Z" fill="white"/>
<path d="M96.2157 26.8978C96.2157 27.6839 96.3494 28.1866 96.617 28.406C96.8845 28.6254 97.4387 28.7351 98.2795 28.7351V29.4206C98.0119 29.4206 97.7635 29.4206 97.5342 29.4206C97.3049 29.4206 97.0756 29.4115 96.8463 29.3932C96.617 29.3932 96.3781 29.3932 96.1297 29.3932C95.9004 29.3749 95.652 29.3658 95.3844 29.3658C95.0978 29.3658 94.8303 29.3749 94.5819 29.3932C94.3526 29.3932 94.1232 29.3932 93.8939 29.3932C93.6455 29.3932 93.3971 29.4023 93.1487 29.4206C92.9194 29.4206 92.671 29.4206 92.4034 29.4206V28.7351C93.2442 28.7351 93.7984 28.6254 94.0659 28.406C94.3334 28.1866 94.4672 27.6839 94.4672 26.8978V20.1795C94.4672 19.6859 94.4481 19.2928 94.4099 19.0003C94.3717 18.7078 94.2952 18.4793 94.1806 18.3148C94.0659 18.1502 93.8939 18.0405 93.6646 17.9857C93.4353 17.9309 93.12 17.9034 92.7187 17.9034V17.3276C93.3302 17.2362 93.8844 17.0991 94.3812 16.9162C94.8972 16.7334 95.3749 16.4501 95.8144 16.0662H96.3303C96.273 16.5598 96.2348 17.0899 96.2157 17.6566C96.2157 18.2051 96.2157 18.6987 96.2157 19.1374V26.8978ZM93.8653 10.0608C93.8653 9.69516 93.999 9.37523 94.2666 9.10102C94.5532 8.8268 94.8876 8.68969 95.2698 8.68969C95.652 8.68969 95.9864 8.8268 96.273 9.10102C96.5596 9.37523 96.703 9.69516 96.703 10.0608C96.703 10.4264 96.5596 10.7463 96.273 11.0205C95.9864 11.2765 95.652 11.4045 95.2698 11.4045C94.8876 11.4045 94.5532 11.2765 94.2666 11.0205C93.999 10.7463 93.8653 10.4264 93.8653 10.0608Z" fill="white"/>
<path d="M108.426 16.8066V18.0131H104.528V26.8704C104.528 27.6748 104.748 28.1866 105.187 28.406C105.627 28.6254 106.353 28.7351 107.366 28.7351V29.4206C106.869 29.4023 106.305 29.3932 105.675 29.3932C105.063 29.3749 104.433 29.3658 103.783 29.3658C103.152 29.3658 102.531 29.3749 101.92 29.3932C101.308 29.3932 100.773 29.4023 100.315 29.4206V28.7351C101.174 28.7351 101.796 28.5888 102.178 28.2963C102.579 28.0038 102.78 27.5102 102.78 26.8155V18.0131H100.601V17.4647C101.098 17.4098 101.585 17.2636 102.063 17.0259C102.541 16.77 102.78 16.3221 102.78 15.6823C102.78 15.1887 102.827 14.6311 102.923 14.0095C103.019 13.388 103.171 12.7664 103.382 12.1448C103.573 11.5416 103.812 10.9657 104.098 10.4173C104.404 9.85055 104.757 9.38437 105.159 9.01875C105.904 8.2875 106.601 7.77562 107.251 7.48312C107.92 7.19062 108.369 7.04437 108.598 7.04437C109.038 7.04437 109.382 7.14492 109.63 7.34602C109.879 7.52883 110.003 7.81219 110.003 8.19609C110.003 8.52516 109.86 8.77195 109.573 8.93648C109.305 9.10102 109.067 9.18328 108.856 9.18328C108.703 9.18328 108.579 9.17414 108.484 9.15586C108.388 9.1193 108.273 9.08273 108.14 9.04617C108.025 9.00961 107.872 8.97305 107.681 8.93648C107.49 8.89992 107.242 8.88164 106.936 8.88164C106.496 8.88164 106.124 9.00047 105.818 9.23812C105.531 9.47578 105.283 9.76828 105.073 10.1156C104.882 10.463 104.738 10.8286 104.643 11.2125C104.566 11.5964 104.528 11.9346 104.528 12.2271V16.8066H108.426Z" fill="white"/>
<path d="M113.328 25.8284C113.328 26.8887 113.49 27.6108 113.815 27.9947C114.14 28.3786 114.579 28.5705 115.134 28.5705C115.306 28.5705 115.516 28.5431 115.764 28.4883C116.032 28.4334 116.29 28.3603 116.538 28.2689C116.806 28.1775 117.045 28.0861 117.255 27.9947C117.465 27.9033 117.627 27.8119 117.742 27.7205L118 28.1044C117.446 28.6528 116.863 29.0916 116.252 29.4206C115.64 29.7314 114.971 29.8868 114.245 29.8868C113.404 29.8868 112.745 29.6583 112.267 29.2012C111.79 28.7442 111.551 28.077 111.551 27.1995V18.0131H109.544V17.4921C110.5 17.2362 111.216 16.7883 111.694 16.1484C112.172 15.5086 112.516 14.6128 112.726 13.4611H113.328V16.8066H117.914V18.0131H113.328V25.8284Z" fill="white"/>
<path d="M6.64676 5.10028L14.2962 12.4184L12.9807 13.677L5.33118 6.35887L6.64676 5.10028Z" fill="white"/>
<path d="M6.78132 34.0854L14.4308 26.7673L12.9588 25.359L5.30928 32.6771L6.78132 34.0854Z" fill="white"/>
<path fill-rule="evenodd" clip-rule="evenodd" d="M4.89192 6.24C5.79249 6.24 6.52256 5.54156 6.52256 4.68C6.52256 3.81844 5.79249 3.12 4.89192 3.12C3.99134 3.12 3.26128 3.81844 3.26128 4.68C3.26128 5.54156 3.99134 6.24 4.89192 6.24ZM4.89192 9.36C7.59365 9.36 9.78383 7.26469 9.78383 4.68C9.78383 2.09531 7.59365 0 4.89192 0C2.19019 0 0 2.09531 0 4.68C0 7.26469 2.19019 9.36 4.89192 9.36Z" fill="white"/>
<path fill-rule="evenodd" clip-rule="evenodd" d="M4.89192 35.88C5.79249 35.88 6.52256 35.1816 6.52256 34.32C6.52256 33.4584 5.79249 32.76 4.89192 32.76C3.99134 32.76 3.26128 33.4584 3.26128 34.32C3.26128 35.1816 3.99134 35.88 4.89192 35.88ZM4.89192 39C7.59365 39 9.78383 36.9047 9.78383 34.32C9.78383 31.7353 7.59365 29.64 4.89192 29.64C2.19019 29.64 0 31.7353 0 34.32C0 36.9047 2.19019 39 4.89192 39Z" fill="white"/>
</svg>
