<svg width="43" height="43" viewBox="0 0 43 43" fill="none" xmlns="http://www.w3.org/2000/svg">
<rect width="43" height="43" fill="#343434"/>
<g id="Project campaign" clip-path="url(#clip0_0_1)">
<rect width="1426" height="2017" transform="translate(-1144 -112)" fill="#10172C"/>
<g id="Frame 57">
<g id="Frame 51">
<g id="Frame 45">
<g id="iconoir:community">
<path id="Vector" d="M12.5417 32.25V30.4583C12.5417 28.0824 13.4855 25.8038 15.1655 24.1238C16.8455 22.4438 19.1241 21.5 21.5 21.5M21.5 21.5C23.8759 21.5 26.1545 22.4438 27.8345 24.1238C29.5145 25.8038 30.4584 28.0824 30.4584 30.4583V32.25M21.5 21.5C22.9256 21.5 24.2927 20.9337 25.3007 19.9257C26.3087 18.9177 26.875 17.5505 26.875 16.125C26.875 14.6995 26.3087 13.3323 25.3007 12.3243C24.2927 11.3163 22.9256 10.75 21.5 10.75C20.0745 10.75 18.7073 11.3163 17.6993 12.3243C16.6913 13.3323 16.125 14.6995 16.125 16.125C16.125 17.5505 16.6913 18.9177 17.6993 19.9257C18.7073 20.9337 20.0745 21.5 21.5 21.5ZM1.79169 32.25V30.4583C1.79169 29.0328 2.35798 27.6656 3.36599 26.6576C4.374 25.6496 5.74115 25.0833 7.16669 25.0833M7.16669 25.0833C8.11705 25.0833 9.02848 24.7058 9.70049 24.0338C10.3725 23.3618 10.75 22.4504 10.75 21.5C10.75 20.5496 10.3725 19.6382 9.70049 18.9662C9.02848 18.2942 8.11705 17.9167 7.16669 17.9167C6.21633 17.9167 5.30489 18.2942 4.63289 18.9662C3.96088 19.6382 3.58335 20.5496 3.58335 21.5C3.58335 22.4504 3.96088 23.3618 4.63289 24.0338C5.30489 24.7058 6.21633 25.0833 7.16669 25.0833ZM41.2084 32.25V30.4583C41.2084 29.0328 40.6421 27.6656 39.634 26.6576C38.626 25.6496 37.2589 25.0833 35.8334 25.0833M35.8334 25.0833C36.7837 25.0833 37.6951 24.7058 38.3671 24.0338C39.0392 23.3618 39.4167 22.4504 39.4167 21.5C39.4167 20.5496 39.0392 19.6382 38.3671 18.9662C37.6951 18.2942 36.7837 17.9167 35.8334 17.9167C34.883 17.9167 33.9716 18.2942 33.2996 18.9662C32.6275 19.6382 32.25 20.5496 32.25 21.5C32.25 22.4504 32.6275 23.3618 33.2996 24.0338C33.9716 24.7058 34.883 25.0833 35.8334 25.0833Z" stroke="#7ADD8A" stroke-width="2.6875" stroke-linecap="round" stroke-linejoin="round"/>
</g>
</g>
</g>
</g>
</g>
<defs>
<clipPath id="clip0_0_1">
<rect width="1426" height="2017" fill="white" transform="translate(-1144 -112)"/>
</clipPath>
</defs>
</svg>
