<svg width="43" height="44" viewBox="0 0 43 44" fill="none" xmlns="http://www.w3.org/2000/svg">
<rect width="43" height="44" fill="#343434"/>
<g id="Project campaign" clip-path="url(#clip0_0_1)">
<rect width="1426" height="2017" transform="translate(-1144 -303)" fill="#10172C"/>
<g id="Frame 57">
<g id="Frame 51">
<g id="Frame 46">
<g id="solar:money-bag-linear">
<g id="Group">
<path id="Vector" d="M28.6666 11.25C28.6666 7.87096 28.6666 6.18321 27.6167 5.13329C26.5668 4.08337 24.8791 4.08337 21.5 4.08337C18.1209 4.08337 16.4331 4.08337 15.3832 5.13329C14.3333 6.18321 14.3333 7.87096 14.3333 11.25M3.58331 25.5834C3.58331 18.827 3.58331 15.4479 5.68315 13.3499C7.78119 11.25 11.1603 11.25 17.9166 11.25H25.0833C31.8397 11.25 35.2188 11.25 37.3168 13.3499C39.4166 15.4479 39.4166 18.827 39.4166 25.5834C39.4166 32.3397 39.4166 35.7188 37.3168 37.8169C35.2188 39.9167 31.8397 39.9167 25.0833 39.9167H17.9166C11.1603 39.9167 7.78119 39.9167 5.68315 37.8169C3.58331 35.7188 3.58331 32.3397 3.58331 25.5834Z" stroke="#FFF06A" stroke-width="2.6875"/>
<path id="Vector_2" d="M21.5 31.555C23.4798 31.555 25.0833 30.2185 25.0833 28.5701C25.0833 26.9218 23.4798 25.5834 21.5 25.5834C19.5202 25.5834 17.9166 24.2468 17.9166 22.5967C17.9166 20.9484 19.5202 19.6118 21.5 19.6118M21.5 31.555C19.5202 31.555 17.9166 30.2185 17.9166 28.5701M21.5 31.555V32.7501M21.5 19.6118V18.4167M21.5 19.6118C23.4798 19.6118 25.0833 20.9484 25.0833 22.5967" stroke="#FFF06A" stroke-width="2.6875" stroke-linecap="round"/>
</g>
</g>
</g>
</g>
</g>
</g>
<defs>
<clipPath id="clip0_0_1">
<rect width="1426" height="2017" fill="white" transform="translate(-1144 -303)"/>
</clipPath>
</defs>
</svg>
