<svg width="43" height="43" viewBox="0 0 43 43" fill="none" xmlns="http://www.w3.org/2000/svg">
<g id="clarity:date-line" clip-path="url(#clip0_93_565)">
<path id="Vector" d="M38.5209 7.16663H34.6389V9.55551H38.2223V35.8333H4.77781V9.55551H8.36114V7.16663H4.4792C4.19998 7.17129 3.92442 7.23092 3.66825 7.3421C3.41208 7.45328 3.18032 7.61384 2.98621 7.8146C2.79211 8.01536 2.63945 8.2524 2.53696 8.51217C2.43448 8.77194 2.38417 9.04935 2.38892 9.32857V36.0602C2.38417 36.3395 2.43448 36.6169 2.53696 36.8766C2.63945 37.1364 2.79211 37.3734 2.98621 37.5742C3.18032 37.775 3.41208 37.9355 3.66825 38.0467C3.92442 38.1579 4.19998 38.2175 4.4792 38.2222H38.5209C38.8001 38.2175 39.0756 38.1579 39.3318 38.0467C39.588 37.9355 39.8197 37.775 40.0138 37.5742C40.208 37.3734 40.3606 37.1364 40.4631 36.8766C40.5656 36.6169 40.6159 36.3395 40.6111 36.0602V9.32857C40.6159 9.04935 40.5656 8.77194 40.4631 8.51217C40.3606 8.2524 40.208 8.01536 40.0138 7.8146C39.8197 7.61384 39.588 7.45328 39.3318 7.3421C39.0756 7.23092 38.8001 7.17129 38.5209 7.16663Z" fill="#D5FFB4"/>
<path id="Vector_2" d="M9.55554 16.7222H11.9444V19.1111H9.55554V16.7222Z" fill="#D5FFB4"/>
<path id="Vector_3" d="M16.7222 16.7222H19.1111V19.1111H16.7222V16.7222Z" fill="#D5FFB4"/>
<path id="Vector_4" d="M23.8889 16.7222H26.2778V19.1111H23.8889V16.7222Z" fill="#D5FFB4"/>
<path id="Vector_5" d="M31.0555 16.7222H33.4444V19.1111H31.0555V16.7222Z" fill="#D5FFB4"/>
<path id="Vector_6" d="M9.55554 22.6945H11.9444V25.0833H9.55554V22.6945Z" fill="#D5FFB4"/>
<path id="Vector_7" d="M16.7222 22.6945H19.1111V25.0833H16.7222V22.6945Z" fill="#D5FFB4"/>
<path id="Vector_8" d="M23.8889 22.6945H26.2778V25.0833H23.8889V22.6945Z" fill="#D5FFB4"/>
<path id="Vector_9" d="M31.0555 22.6945H33.4444V25.0833H31.0555V22.6945Z" fill="#D5FFB4"/>
<path id="Vector_10" d="M9.55554 28.6666H11.9444V31.0555H9.55554V28.6666Z" fill="#D5FFB4"/>
<path id="Vector_11" d="M16.7222 28.6666H19.1111V31.0555H16.7222V28.6666Z" fill="#D5FFB4"/>
<path id="Vector_12" d="M23.8889 28.6666H26.2778V31.0555H23.8889V28.6666Z" fill="#D5FFB4"/>
<path id="Vector_13" d="M31.0555 28.6666H33.4444V31.0555H31.0555V28.6666Z" fill="#D5FFB4"/>
<path id="Vector_14" d="M11.9444 11.9445C12.2612 11.9445 12.565 11.8186 12.789 11.5946C13.013 11.3706 13.1389 11.0668 13.1389 10.75V3.58336C13.1389 3.26657 13.013 2.96276 12.789 2.73876C12.565 2.51476 12.2612 2.38892 11.9444 2.38892C11.6277 2.38892 11.3238 2.51476 11.0998 2.73876C10.8758 2.96276 10.75 3.26657 10.75 3.58336V10.75C10.75 11.0668 10.8758 11.3706 11.0998 11.5946C11.3238 11.8186 11.6277 11.9445 11.9444 11.9445Z" fill="#D5FFB4"/>
<path id="Vector_15" d="M31.0555 11.9445C31.3723 11.9445 31.6761 11.8186 31.9001 11.5946C32.1241 11.3706 32.25 11.0668 32.25 10.75V3.58336C32.25 3.26657 32.1241 2.96276 31.9001 2.73876C31.6761 2.51476 31.3723 2.38892 31.0555 2.38892C30.7387 2.38892 30.4349 2.51476 30.2109 2.73876C29.9869 2.96276 29.8611 3.26657 29.8611 3.58336V10.75C29.8611 11.0668 29.9869 11.3706 30.2109 11.5946C30.4349 11.8186 30.7387 11.9445 31.0555 11.9445Z" fill="#D5FFB4"/>
<path id="Vector_16" d="M15.5278 7.16663H27.4722V9.55551H15.5278V7.16663Z" fill="#D5FFB4"/>
</g>
<defs>
<clipPath id="clip0_93_565">
<rect width="43" height="43" fill="white"/>
</clipPath>
</defs>
</svg>
