<svg width="214" height="201" viewBox="0 0 214 201" fill="none" xmlns="http://www.w3.org/2000/svg">
<g filter="url(#filter0_d_27_98)">
<rect x="13" width="188" height="161" rx="16" fill="#0B65D4"/>
<path d="M73.9763 27.6017C75.4528 27.6017 76.6537 26.4006 76.6537 24.9242C76.6537 23.4479 75.4528 22.2468 73.9763 22.2468C72.4999 22.2468 71.2988 23.4479 71.2988 24.9242C71.2988 26.4006 72.4999 27.6017 73.9763 27.6017Z" fill="#EDEDED"/>
<path d="M139.127 79.3655C139.127 76.905 137.126 74.9031 134.665 74.9031C132.205 74.9031 130.203 76.905 130.203 79.3655C130.203 81.8261 132.205 83.828 134.665 83.828C137.126 83.828 139.127 81.8261 139.127 79.3655Z" fill="#EDEDED"/>
<path d="M148.052 97.2152H112.046L103.897 78.4731H114.138V85.6129C114.138 86.106 114.538 86.5054 115.031 86.5054C115.524 86.5054 115.923 86.106 115.923 85.6129C115.923 85.5826 115.927 77.6111 115.927 77.5806C115.927 77.3396 115.832 77.1215 115.677 76.9607L104.427 63.3009H114.138V70.4407C114.138 70.9338 114.537 71.3332 115.03 71.3332C115.523 71.3332 115.923 70.9338 115.923 70.4407C115.923 70.4104 115.927 62.4389 115.927 62.4084C115.927 62.1674 115.831 61.9493 115.676 61.7885L104.427 48.1287H114.138V55.2685C114.138 55.7614 114.537 56.161 115.03 56.161C115.523 56.161 115.923 55.7614 115.923 55.2685C115.923 55.2382 115.927 47.2667 115.927 47.2362C115.927 46.9952 115.831 46.7771 115.676 46.6163L103.235 31.5085L91.6426 16.3495C91.2799 15.8751 90.5532 15.8831 90.2045 16.3768L79.5136 31.5223C76.4504 35.2445 67.032 46.6718 66.9805 46.7527C66.8878 46.8956 66.842 47.0545 66.8382 47.2178C66.8382 47.2483 66.8364 55.238 66.8364 55.2684C66.8364 55.7612 67.2359 56.1608 67.7289 56.1608C68.2219 56.1608 68.6214 55.7612 68.6214 55.2684V48.1285H78.3325C76.5407 50.3058 67.0331 61.8424 66.9801 61.925C66.8884 62.0669 66.8418 62.2256 66.838 62.39C66.838 62.4205 66.8362 70.4102 66.8362 70.4406C66.8362 70.9336 67.2357 71.333 67.7287 71.333C68.2217 71.333 68.6212 70.9336 68.6212 70.4406V63.3007H78.3323C76.5406 65.478 67.0329 77.0146 66.9799 77.0972C66.8882 77.2391 66.8416 77.3978 66.8378 77.5622C66.8378 77.5927 66.8361 85.5824 66.8361 85.6128C66.8361 86.1058 67.2355 86.5052 67.7285 86.5052C68.2215 86.5052 68.621 86.1058 68.621 85.6128V78.4729H78.8623L70.7135 97.215H65.9439C65.4509 97.215 65.0515 97.6145 65.0515 98.1075C65.0515 98.6005 65.4509 99 65.9439 99C83.857 99 130.406 99 148.052 99C148.545 99 148.945 98.6005 148.945 98.1075C148.945 97.6145 148.545 97.2152 148.052 97.2152ZM103.428 34.5515L113.139 46.3437H103.428V34.5515ZM103.428 49.7237L113.139 61.5159H103.428V49.7237ZM103.428 64.8958L113.139 76.6881H103.428V64.8958ZM83.1233 76.6881L91.3797 71.0739L99.636 76.6881H83.1233ZM99.5523 78.4731L91.3797 83.8437L83.207 78.4731H99.5523ZM99.636 48.1287L91.3797 53.7429L83.1233 48.1287H99.636ZM83.1233 46.3437L91.3797 40.7295L99.636 46.3437H83.1233ZM99.636 61.5159H83.1233L91.3797 55.9017L99.636 61.5159ZM99.636 63.3009L91.3797 68.9151L83.1233 63.3009H99.636ZM92.9671 69.9945L101.643 64.0943V75.8942L92.9671 69.9945ZM92.9671 54.8223L101.643 48.9223V60.722L92.9671 54.8223ZM92.9671 39.6501L101.643 33.7501V45.5498L92.9671 39.6501ZM99.636 32.9565L91.3797 38.5707L83.1233 32.9565H99.636ZM81.1161 33.7501L89.7925 39.6501L81.1161 45.5499V33.7501ZM81.1161 48.9223L89.7925 54.8223L81.1161 60.7221V48.9223ZM81.1161 64.0943L89.7925 69.9945L81.1161 75.8943V64.0943ZM69.6201 46.3437L79.3312 34.5515V46.3437H69.6201ZM69.6201 61.5159L79.3312 49.7237V61.5159H69.6201ZM69.6201 76.6881L79.3312 64.8958V76.6881H69.6201ZM80.6194 78.9086L89.7545 84.9116L73.3116 95.7173L80.6194 78.9086ZM74.2822 97.2152L91.3797 85.9798L108.477 97.2152H74.2822ZM93.0051 84.9115L102.14 78.9084L109.448 95.7171L93.0051 84.9115Z" fill="#EDEDED"/>
<path d="M120.832 20.4617C121.571 20.4617 122.17 19.8624 122.17 19.123C122.17 18.3837 121.571 17.7843 120.832 17.7843C120.092 17.7843 119.493 18.3837 119.493 19.123C119.493 19.8624 120.092 20.4617 120.832 20.4617Z" fill="#EDEDED"/>
<path d="M111.014 30.2791C111.754 30.2791 112.353 29.6797 112.353 28.9403C112.353 28.201 111.754 27.6016 111.014 27.6016C110.275 27.6016 109.676 28.201 109.676 28.9403C109.676 29.6797 110.275 30.2791 111.014 30.2791Z" fill="#EDEDED"/>
<path d="M144.929 74.0107C145.668 74.0107 146.267 73.4113 146.267 72.672C146.267 71.9326 145.668 71.3333 144.929 71.3333C144.189 71.3333 143.59 71.9326 143.59 72.672C143.59 73.4113 144.189 74.0107 144.929 74.0107Z" fill="#EDEDED"/>
<path d="M80.6699 19.5693C81.4092 19.5693 82.0086 18.9699 82.0086 18.2306C82.0086 17.4912 81.4092 16.8918 80.6699 16.8918C79.9305 16.8918 79.3311 17.4912 79.3311 18.2306C79.3311 18.9699 79.9305 19.5693 80.6699 19.5693Z" fill="#EDEDED"/>
<path d="M67.2826 38.3114C68.022 38.3114 68.6214 37.712 68.6214 36.9726C68.6214 36.2333 68.022 35.6339 67.2826 35.6339C66.5433 35.6339 65.9439 36.2333 65.9439 36.9726C65.9439 37.712 66.5433 38.3114 67.2826 38.3114Z" fill="#EDEDED"/>
<path d="M135.111 92.7528C135.851 92.7528 136.45 92.1535 136.45 91.4141C136.45 90.6747 135.851 90.0754 135.111 90.0754C134.372 90.0754 133.773 90.6747 133.773 91.4141C133.773 92.1535 134.372 92.7528 135.111 92.7528Z" fill="#EDEDED"/>
<path d="M119.047 91.8603C119.786 91.8603 120.385 91.2609 120.385 90.5216C120.385 89.7822 119.786 89.1829 119.047 89.1829C118.307 89.1829 117.708 89.7822 117.708 90.5216C117.708 91.2609 118.307 91.8603 119.047 91.8603Z" fill="#EDEDED"/>
<path d="M148.052 49.2761C148.545 49.2761 148.945 48.8766 148.945 48.3836V44.7209C148.945 44.7091 148.948 44.698 148.948 44.6862C148.948 44.4454 148.853 44.2271 148.698 44.0665L142.804 36.9088H147.16V39.7137C147.16 40.2065 147.559 40.6062 148.053 40.6062C148.546 40.6062 148.945 40.2065 148.945 39.7137V36.0509C148.946 36.0393 148.949 36.0283 148.949 36.0165C148.949 35.7757 148.853 35.5574 148.698 35.3967L141.612 26.7914L134.992 18.1347C134.616 17.6435 133.893 17.6822 133.554 18.162L127.453 26.805C119.871 36.0161 120.276 35.4931 120.202 35.6666C120.166 35.7462 120.135 35.8799 120.132 35.9983C120.129 36.1127 120.131 38.7514 120.13 39.7137C120.13 40.2065 120.53 40.6062 121.023 40.6062C121.516 40.6062 121.915 40.2065 121.915 39.7137V36.9088H126.272C125.012 38.4405 120.34 44.1022 120.274 44.2027C120.18 44.3494 120.135 44.5104 120.132 44.6679C120.129 44.7791 120.131 47.424 120.13 48.3833C120.13 48.8763 120.53 49.2757 121.023 49.2757C121.516 49.2757 121.915 48.8763 121.915 48.3833V45.5784H126.271C120.005 53.1982 120.279 52.8244 120.202 53.0058C120.167 53.0829 120.134 53.2178 120.132 53.3374C120.129 53.4518 120.131 56.0906 120.13 57.053C120.13 57.546 120.53 57.9455 121.023 57.9455C121.516 57.9455 121.915 57.546 121.915 57.053V54.2479H126.801L122.478 64.1934H121.278C120.785 64.1934 120.385 64.5929 120.385 65.0859C120.385 65.5789 120.785 65.9784 121.278 65.9784C124.233 65.9784 145.141 65.9784 148.052 65.9784C148.545 65.9784 148.945 65.5789 148.945 65.0859C148.945 64.5929 148.545 64.1934 148.052 64.1934H146.598L142.274 54.2485H147.16V57.0535C147.16 57.5466 147.559 57.946 148.052 57.946C148.545 57.946 148.945 57.5466 148.945 57.0535V53.3906C148.945 53.379 148.948 53.368 148.948 53.3562C148.948 53.1154 148.853 52.8971 148.698 52.7364L142.804 45.5787H147.16V48.3836C147.16 48.8764 147.559 49.2761 148.052 49.2761ZM141.805 29.8343L146.161 35.124H141.805V29.8343ZM131.062 52.4635L134.538 50.1004L138.013 52.4635H131.062ZM137.929 54.2485L134.537 56.4772L131.146 54.2485H137.929ZM138.013 36.909L134.537 39.2721L131.062 36.909H138.013ZM131.062 35.124L134.538 32.7609L138.013 35.124H131.062ZM138.013 43.7938H131.062L134.537 41.4306L138.013 43.7938ZM138.013 45.5787L134.537 47.9418L131.062 45.5787H138.013ZM136.125 49.0212L140.02 46.3723V51.6697L136.125 49.0212ZM136.125 40.3513L140.02 37.7027V43.0002L136.125 40.3513ZM136.125 31.6815L140.02 29.0326V34.3301L136.125 31.6815ZM138.013 28.2389L134.537 30.6022L131.062 28.2389H138.013ZM129.055 29.0328L132.95 31.6817L129.055 34.3302V29.0328ZM129.055 37.7027L132.95 40.3513L129.055 43.0002V37.7027ZM129.055 46.3723L132.95 49.0212L129.055 51.6697V46.3723ZM122.914 35.124L127.27 29.8343V35.124H122.914ZM122.914 43.7938L127.27 38.504V43.7938H122.914ZM122.914 52.4635L127.27 47.1738V52.4635H122.914ZM128.559 54.6842L132.912 57.5451L125.076 62.6953L128.559 54.6842ZM126.046 64.1934L134.537 58.6133L143.029 64.1934H126.046ZM144 62.6953L136.163 57.5451L140.517 54.6842L144 62.6953ZM146.161 52.4635H141.805V47.1738L146.161 52.4635ZM141.805 43.7938V38.504L146.161 43.7938H141.805Z" fill="#EDEDED"/>
<path d="M64.8738 140V127.04H73.9998V128.894H67.2138V132.422H73.5678V134.24H67.2138V138.146H74.1978V140H64.8738ZM76.3017 140V127.04H78.5697V140H76.3017ZM85.0995 140.18C82.1835 140.18 80.2575 138.218 80.2575 135.392C80.2575 132.566 82.2015 130.64 85.0635 130.64C87.7995 130.64 89.5635 132.458 89.5635 135.194C89.5635 135.554 89.5275 135.824 89.4915 136.094H82.5615C82.7595 137.642 83.6415 138.47 85.1175 138.47C86.0895 138.47 86.8095 138.11 87.1695 137.372H89.3115C88.7175 139.118 87.2595 140.18 85.0995 140.18ZM85.0275 132.35C83.7315 132.35 82.8675 133.106 82.6155 134.51H87.2595C87.1335 133.07 86.3235 132.35 85.0275 132.35ZM95.3617 140.18C92.6077 140.18 90.6637 138.164 90.6637 135.392C90.6637 132.638 92.6077 130.64 95.3617 130.64C97.6477 130.64 99.3397 132.008 99.6817 134.024H97.5037C97.2337 133.052 96.4417 132.458 95.3977 132.458C93.9217 132.458 93.0217 133.61 93.0217 135.392C93.0217 137.192 93.9397 138.362 95.3977 138.362C96.4417 138.362 97.2337 137.786 97.5037 136.796H99.6817C99.3397 138.812 97.6297 140.18 95.3617 140.18ZM105.349 140.18C103.099 140.18 102.055 139.136 102.055 136.976V132.602H100.291V130.82H102.055V128.732L104.341 127.886V130.82H106.843V132.602H104.341V137.03C104.341 137.93 104.809 138.344 105.835 138.344C106.231 138.344 106.555 138.272 106.843 138.182V139.946C106.537 140.108 105.997 140.18 105.349 140.18ZM108.54 140V130.82H110.754V132.548C111.258 131.306 112.248 130.64 113.526 130.64C113.76 130.64 113.94 130.658 114.066 130.712V132.854C113.94 132.818 113.724 132.8 113.418 132.8C111.672 132.8 110.808 133.538 110.808 135.212V140H108.54ZM115.305 129.308V126.806H117.789V129.308H115.305ZM115.413 140V130.82H117.681V140H115.413ZM124.032 140.18C121.278 140.18 119.334 138.164 119.334 135.392C119.334 132.638 121.278 130.64 124.032 130.64C126.318 130.64 128.01 132.008 128.352 134.024H126.174C125.904 133.052 125.112 132.458 124.068 132.458C122.592 132.458 121.692 133.61 121.692 135.392C121.692 137.192 122.61 138.362 124.068 138.362C125.112 138.362 125.904 137.786 126.174 136.796H128.352C128.01 138.812 126.3 140.18 124.032 140.18ZM129.737 129.308V126.806H132.221V129.308H129.737ZM129.845 140V130.82H132.113V140H129.845ZM138.537 140.18C136.287 140.18 135.243 139.136 135.243 136.976V132.602H133.479V130.82H135.243V128.732L137.529 127.886V130.82H140.031V132.602H137.529V137.03C137.529 137.93 137.997 138.344 139.023 138.344C139.419 138.344 139.743 138.272 140.031 138.182V139.946C139.725 140.108 139.185 140.18 138.537 140.18ZM142.374 143.69L144.228 139.496L140.682 130.82H143.148L145.452 136.904L147.756 130.82H150.168L144.678 143.69H142.374Z" fill="#EDEDED"/>
</g>
<defs>
<filter id="filter0_d_27_98" x="0" y="0" width="214" height="201" filterUnits="userSpaceOnUse" color-interpolation-filters="sRGB">
<feFlood flood-opacity="0" result="BackgroundImageFix"/>
<feColorMatrix in="SourceAlpha" type="matrix" values="0 0 0 0 0 0 0 0 0 0 0 0 0 0 0 0 0 0 127 0" result="hardAlpha"/>
<feMorphology radius="24" operator="erode" in="SourceAlpha" result="effect1_dropShadow_27_98"/>
<feOffset dy="27"/>
<feGaussianBlur stdDeviation="18.5"/>
<feComposite in2="hardAlpha" operator="out"/>
<feColorMatrix type="matrix" values="0 0 0 0 0.294118 0 0 0 0 0.619608 0 0 0 0 0.92549 0 0 0 0.5 0"/>
<feBlend mode="normal" in2="BackgroundImageFix" result="effect1_dropShadow_27_98"/>
<feBlend mode="normal" in="SourceGraphic" in2="effect1_dropShadow_27_98" result="shape"/>
</filter>
</defs>
</svg>
