<svg width="214" height="201" viewBox="0 0 214 201" fill="none" xmlns="http://www.w3.org/2000/svg">
<g filter="url(#filter0_d_25_43)">
<rect x="13" width="188" height="161" rx="16" fill="#EDEDED"/>
<path d="M113.741 53.1148C113.675 53.146 106.958 56.179 100.253 53.1123C99.6303 52.8261 98.8937 53.106 98.6109 53.7346C98.3281 54.362 98.6047 55.103 99.2285 55.3892C101.869 56.5964 104.474 57 106.777 57C111.247 57 114.574 55.4829 114.783 55.3854C115.403 55.0955 115.672 54.3545 115.385 53.7296C115.099 53.101 114.366 52.8274 113.741 53.1148Z" fill="black"/>
<path d="M167.488 55.6802C167.227 53.9059 164.863 53.8821 160.6 54.4636L139.49 56.498L139.361 56.4955C138.892 56.4955 138.438 56.5493 137.996 56.6419L124.166 57.9748C123.702 53.9534 122.052 50.3308 119.602 47.5173L126.205 45.2414C126.856 45.0164 127.203 44.3049 126.978 43.6521C126.754 42.9994 126.045 42.6492 125.393 42.8756L117.613 45.5566C114.985 43.3445 111.757 41.9365 108.236 41.6651V32.2505C108.236 31.5602 107.677 31 106.988 31C106.299 31 105.741 31.5602 105.741 32.2505V41.6651C102.226 41.9365 99.0053 43.3395 96.3792 45.5441L88.6384 42.8768C87.9859 42.6505 87.2773 43.0006 87.0528 43.6534C86.8295 44.3061 87.1763 45.0176 87.8275 45.2427L94.3857 47.5023C91.9293 50.317 90.2739 53.9446 89.8073 57.9736L76.0035 56.6431C75.5632 56.5506 75.1078 56.4968 74.6387 56.4968L74.509 56.4993L53.3998 54.4636C49.137 53.8821 46.7742 53.9046 46.5122 55.6802C46.0107 59.0652 61.0832 63.0404 68.2053 64.3134C68.7904 67.3608 71.4264 69.6253 74.6325 69.6253L74.8496 69.6216C77.2373 69.5428 79.2683 68.1823 80.3549 66.2354L91.0636 67.6596C93.717 74.3208 99.8548 79 106.991 79C114.123 79 120.258 74.3233 122.913 67.6634L133.641 66.2366C133.902 66.703 134.199 67.1507 134.574 67.5508C135.773 68.8288 137.4 69.5641 139.153 69.6216L139.367 69.6253C142.576 69.6253 145.213 67.3595 145.796 64.3134C152.918 63.0404 167.99 59.0652 167.488 55.6802ZM53.1066 56.947C53.1153 56.9482 53.1228 56.9445 53.1315 56.9457C53.1403 56.947 53.1478 56.952 53.1577 56.9532L69.862 58.5638C69.0324 59.4441 68.4573 60.5533 68.2115 61.7787C61.0308 60.4945 54.2568 58.2412 50.9309 56.7006C51.511 56.7481 52.2258 56.8257 53.1066 56.947ZM74.7685 67.1232L74.6325 67.1244C72.4232 67.1244 70.6355 65.3975 70.5643 63.1942C70.492 60.9709 72.236 59.104 74.4579 59.0052L75.5719 59.1127C77.3296 59.5204 78.647 61.0447 78.7081 62.9279C78.7805 65.1675 77.0128 67.0481 74.7685 67.1232ZM81.1358 63.817C81.1732 63.4968 81.2132 63.178 81.2019 62.8479C81.162 61.6287 80.7803 60.5145 80.1765 59.5567L89.6688 60.472C89.6826 62.0463 89.8896 63.5681 90.2439 65.0274L81.1358 63.817ZM106.991 76.4991C98.8106 76.4991 92.1551 69.2314 92.1551 60.2994C92.1551 51.3674 98.8094 44.0998 106.991 44.0998C115.169 44.0998 121.822 51.3674 121.822 60.2994C121.822 69.2314 115.169 76.4991 106.991 76.4991ZM123.734 65.0312C124.088 63.5706 124.295 62.0488 124.309 60.4745L133.826 59.5567C133.223 60.5145 132.84 61.6287 132.802 62.8466C132.791 63.1755 132.828 63.4968 132.864 63.817L123.734 65.0312ZM139.366 67.1244L139.234 67.1232C138.145 67.0869 137.136 66.6292 136.392 65.8377C135.649 65.0449 135.259 64.0133 135.294 62.9291C135.355 61.046 136.673 59.5217 138.433 59.114L139.546 59.0065C141.768 59.1052 143.51 60.9709 143.439 63.1955C143.366 65.3988 141.578 67.1244 139.366 67.1244ZM145.792 61.7775C145.546 60.5533 144.971 59.4429 144.142 58.5626L160.846 56.952C160.855 56.9507 160.862 56.9457 160.872 56.9445C160.881 56.9445 160.888 56.947 160.897 56.9457C161.777 56.8244 162.493 56.7469 163.074 56.6981C159.746 58.2412 152.973 60.4933 145.792 61.7775Z" fill="black"/>
<path d="M86.9405 86.2532C84.1325 81.177 79.0309 80.0764 75.4943 81.6882C73.6728 82.5208 72.2831 83.9738 71.5658 85.7494C70.6669 85.8772 69.8244 86.2557 69.1246 86.8723C68.4247 87.4865 67.9315 88.2807 67.6811 89.1641C65.8558 89.7274 64.5 91.6681 64.5 93.9896C64.5 96.7529 66.4079 99 68.754 99H86.1393C89.0951 99 91.5 96.1188 91.5 92.5776C91.5 89.3651 89.5145 86.721 86.9405 86.2532ZM86.1393 96.5184H68.754C67.8051 96.5184 67.0038 95.3595 67.0038 93.9896C67.0038 92.6198 67.8063 91.4646 68.754 91.4646C68.9205 91.4646 69.082 91.4298 69.2285 91.3703C69.2823 91.3479 69.3236 91.3082 69.3737 91.2797C69.4601 91.2301 69.5477 91.1841 69.6191 91.1159C69.6666 91.07 69.6967 91.0117 69.7368 90.9596C69.7918 90.8876 69.8494 90.8206 69.8882 90.7362C69.917 90.6729 69.9258 90.6022 69.9433 90.5327C69.9633 90.4595 69.9959 90.3938 70.0022 90.3156C70.0497 89.6952 70.3277 89.1319 70.7846 88.7286C71.2328 88.3365 71.8074 88.1491 72.3845 88.1851C72.4296 88.1888 72.4697 88.1702 72.5147 88.169C72.6049 88.1665 72.6888 88.1578 72.7751 88.138C72.8503 88.1193 72.9166 88.0945 72.9855 88.0635C73.0618 88.0288 73.1319 87.9903 73.1983 87.9419C73.2621 87.896 73.3172 87.8464 73.3723 87.7893C73.4274 87.731 73.4762 87.6714 73.52 87.6044C73.5651 87.5337 73.5989 87.4617 73.6289 87.3823C73.6452 87.3389 73.6778 87.3041 73.689 87.2582C74.0696 85.8028 75.1087 84.5942 76.5396 83.9403C79.1324 82.7628 82.9807 83.7579 85.0101 87.9345C85.0689 88.0573 85.149 88.1615 85.2404 88.2546C85.2617 88.2757 85.2855 88.2893 85.308 88.3092C85.3957 88.3874 85.4908 88.4506 85.5947 88.5015C85.6323 88.5189 85.6673 88.535 85.7061 88.5499C85.8439 88.6008 85.9878 88.6355 86.1368 88.6355C87.6854 88.6355 88.9949 90.4397 88.9949 92.5763C88.9949 94.713 87.6879 96.5184 86.1393 96.5184Z" fill="black"/>
<path d="M137.754 34H155.141C158.095 34 160.5 31.1189 160.5 27.5764C160.5 24.364 158.514 21.7199 155.939 21.2521C153.132 16.176 148.031 15.0767 144.492 16.6885C142.674 17.5198 141.283 18.9728 140.563 20.7471C139.668 20.8737 138.821 21.2558 138.122 21.8725C137.421 22.4879 136.929 23.282 136.68 24.1642C134.856 24.7288 133.5 26.6682 133.5 28.9897C133.501 31.7529 135.409 34 137.754 34ZM137.754 26.4647C137.923 26.4647 138.082 26.4299 138.228 26.3691C138.282 26.3468 138.324 26.3071 138.375 26.2773C138.46 26.2277 138.548 26.1818 138.618 26.1148C138.665 26.0689 138.697 26.0118 138.736 25.9584C138.791 25.8865 138.849 25.8195 138.887 25.7363C138.916 25.6718 138.925 25.6011 138.943 25.5316C138.962 25.4584 138.996 25.3926 139.002 25.3157C139.048 24.6953 139.328 24.1307 139.785 23.7287C140.232 23.3354 140.806 23.1456 141.383 23.1853C141.43 23.189 141.471 23.1704 141.517 23.1691C141.6 23.1666 141.679 23.1592 141.758 23.1393C141.84 23.1207 141.915 23.0934 141.992 23.0587C142.062 23.0264 142.123 22.9917 142.187 22.9483C142.256 22.8999 142.315 22.8478 142.371 22.7882C142.425 22.7324 142.471 22.674 142.514 22.6083C142.56 22.5376 142.594 22.4644 142.625 22.3837C142.643 22.3403 142.674 22.3068 142.687 22.2609C143.07 20.8067 144.11 19.5969 145.538 18.943C148.13 17.7618 151.979 18.7581 154.011 22.9346C154.07 23.0575 154.149 23.1617 154.24 23.2535C154.262 23.2758 154.287 23.2907 154.311 23.3106C154.397 23.3875 154.492 23.4508 154.596 23.5004C154.632 23.519 154.67 23.5352 154.71 23.55C154.846 23.6009 154.99 23.6344 155.138 23.6357H155.141C156.688 23.6357 157.996 25.4398 157.996 27.5752C157.996 29.7118 156.688 31.5172 155.141 31.5172H137.754C136.805 31.5172 136.005 30.3595 136.005 28.9884C136.005 27.6211 136.805 26.4647 137.754 26.4647Z" fill="black"/>
<path d="M83.5418 140V127.04H92.3798V128.894H85.8818V132.944H91.9478V134.798H85.8818V140H83.5418ZM94.3193 140V127.04H96.5873V140H94.3193ZM98.8871 129.308V126.806H101.371V129.308H98.8871ZM98.9951 140V130.82H101.263V140H98.9951ZM107.633 143.87C105.203 143.87 103.565 142.736 103.277 140.936H105.437C105.653 141.566 106.391 141.926 107.579 141.926C109.289 141.926 110.081 141.17 110.081 139.64V138.164C109.613 139.262 108.479 139.91 106.985 139.91C104.537 139.91 102.935 138.074 102.935 135.302C102.935 132.512 104.609 130.64 107.129 130.64C108.641 130.64 109.739 131.306 110.153 132.458V130.82H112.367V139.622C112.367 142.25 110.567 143.87 107.633 143.87ZM107.723 138.11C109.163 138.11 110.135 137.066 110.135 135.266C110.135 133.466 109.163 132.44 107.705 132.44C106.265 132.44 105.293 133.484 105.293 135.284C105.293 137.084 106.265 138.11 107.723 138.11ZM114.78 140V127.04H117.048V132.404C117.714 131.324 118.848 130.64 120.342 130.64C122.34 130.64 123.51 131.846 123.51 133.736V140H121.224V134.204C121.224 133.07 120.648 132.494 119.532 132.494C118.074 132.494 117.048 133.538 117.048 135.05V140H114.78ZM129.59 140.18C127.34 140.18 126.296 139.136 126.296 136.976V132.602H124.532V130.82H126.296V128.732L128.582 127.886V130.82H131.084V132.602H128.582V137.03C128.582 137.93 129.05 138.344 130.076 138.344C130.472 138.344 130.796 138.272 131.084 138.182V139.946C130.778 140.108 130.238 140.18 129.59 140.18Z" fill="#10172C"/>
</g>
<defs>
<filter id="filter0_d_25_43" x="0" y="0" width="214" height="201" filterUnits="userSpaceOnUse" color-interpolation-filters="sRGB">
<feFlood flood-opacity="0" result="BackgroundImageFix"/>
<feColorMatrix in="SourceAlpha" type="matrix" values="0 0 0 0 0 0 0 0 0 0 0 0 0 0 0 0 0 0 127 0" result="hardAlpha"/>
<feMorphology radius="24" operator="erode" in="SourceAlpha" result="effect1_dropShadow_25_43"/>
<feOffset dy="27"/>
<feGaussianBlur stdDeviation="18.5"/>
<feComposite in2="hardAlpha" operator="out"/>
<feColorMatrix type="matrix" values="0 0 0 0 0.294118 0 0 0 0 0.619608 0 0 0 0 0.92549 0 0 0 0.5 0"/>
<feBlend mode="normal" in2="BackgroundImageFix" result="effect1_dropShadow_25_43"/>
<feBlend mode="normal" in="SourceGraphic" in2="effect1_dropShadow_25_43" result="shape"/>
</filter>
</defs>
</svg>
