<svg width="214" height="201" viewBox="0 0 214 201" fill="none" xmlns="http://www.w3.org/2000/svg">
<g filter="url(#filter0_d_27_121)">
<rect x="13" width="188" height="161" rx="16" fill="#EDEDED"/>
<path d="M154.261 71.8571H152.265L140.453 33.1072C141.27 32.7242 141.962 32.1144 142.448 31.3491C142.933 30.5838 143.193 29.6947 143.197 28.7857V25.5952C143.197 25.1722 143.03 24.7664 142.734 24.4672C142.438 24.1681 142.036 24 141.616 24H94.1969C92.9393 24 91.7332 24.5042 90.8439 25.4017C89.9546 26.2992 89.455 27.5165 89.455 28.7857V31.9762V46.3333H86.2937V44.7381C86.2937 44.315 86.1272 43.9093 85.8308 43.6101C85.5343 43.3109 85.1323 43.1429 84.7131 43.1429H83.1324V39.9524C83.1324 39.1062 82.7994 38.2947 82.2065 37.6964C81.6136 37.098 80.8096 36.7619 79.9711 36.7619V35.1667C79.9711 33.8974 79.4715 32.6802 78.5823 31.7827C77.693 30.8852 76.4868 30.381 75.2292 30.381C73.9716 30.381 72.7654 30.8852 71.8761 31.7827C70.9869 32.6802 70.4873 33.8974 70.4873 35.1667V36.7619C69.6488 36.7619 68.8448 37.098 68.2519 37.6964C67.659 38.2947 67.326 39.1062 67.326 39.9524V43.1429C67.0747 43.1429 66.827 43.2034 66.6035 43.3194C66.38 43.4354 66.1872 43.6034 66.0409 43.8097L58.1377 54.9763C57.9449 55.2467 57.8414 55.5716 57.8421 55.9048V73.4524V76.6429C57.8421 77.9121 58.3417 79.1294 59.231 80.0269C60.1203 80.9244 61.3264 81.4286 62.584 81.4286H68.9066C68.9066 83.9671 69.9058 86.4016 71.6844 88.1966C73.463 89.9916 75.8752 91 78.3905 91C80.9058 91 83.318 89.9916 85.0966 88.1966C86.8752 86.4016 87.8744 83.9671 87.8744 81.4286H124.229C124.229 83.9671 125.228 86.4016 127.007 88.1966C128.786 89.9916 131.198 91 133.713 91C136.228 91 138.641 89.9916 140.419 88.1966C142.198 86.4016 143.197 83.9671 143.197 81.4286H151.1C152.358 81.4286 153.564 80.9244 154.453 80.0269C155.343 79.1294 155.842 77.9121 155.842 76.6429V73.4524C155.842 73.0293 155.676 72.6235 155.379 72.3244C155.083 72.0252 154.681 71.8571 154.261 71.8571ZM92.6163 71.8571V33.5714H137.287L148.958 71.8571H92.6163ZM92.6163 28.7857C92.6163 28.3626 92.7828 27.9569 93.0793 27.6577C93.3757 27.3585 93.7777 27.1905 94.1969 27.1905H140.036V28.7857C140.036 29.2088 139.869 29.6146 139.573 29.9137C139.276 30.2129 138.874 30.381 138.455 30.381H92.6163V28.7857ZM89.455 49.5238V71.8571H86.2937V49.5238H89.455ZM61.0034 67.0714H64.1647V63.881H61.0034V60.6905H78.3905C78.8097 60.6905 79.2117 60.5224 79.5082 60.2232C79.8046 59.9241 79.9711 59.5183 79.9711 59.0952V46.3333H83.1324V71.8571H61.0034V67.0714ZM73.6486 35.1667C73.6486 34.7436 73.8151 34.3378 74.1115 34.0387C74.4079 33.7395 74.81 33.5714 75.2292 33.5714C75.6484 33.5714 76.0505 33.7395 76.3469 34.0387C76.6433 34.3378 76.8098 34.7436 76.8098 35.1667V36.7619H73.6486V35.1667ZM70.4873 39.9524H79.9711V43.1429H70.4873V39.9524ZM68.1368 46.3333H76.8098V57.5H61.0034V56.4152L68.1368 46.3333ZM62.584 78.2381C62.1648 78.2381 61.7628 78.07 61.4664 77.7709C61.1699 77.4717 61.0034 77.0659 61.0034 76.6429V75.0476H71.3408C70.5127 75.9767 69.8732 77.0607 69.4583 78.2381H62.584ZM78.3905 87.8095C77.14 87.8095 75.9176 87.4353 74.8779 86.7341C73.8381 86.033 73.0277 85.0364 72.5492 83.8705C72.0706 82.7045 71.9454 81.4215 72.1894 80.1837C72.4334 78.9459 73.0355 77.8089 73.9198 76.9166C74.804 76.0242 75.9306 75.4164 77.157 75.1702C78.3835 74.924 79.6547 75.0504 80.81 75.5333C81.9653 76.0163 82.9528 76.8342 83.6475 77.8835C84.3423 78.9328 84.7131 80.1665 84.7131 81.4286C84.7131 83.1209 84.0469 84.7439 82.8612 85.9406C81.6755 87.1372 80.0673 87.8095 78.3905 87.8095ZM87.3196 78.2381C86.9044 77.0608 86.2649 75.9769 85.437 75.0476H126.665C125.837 75.9769 125.198 77.0608 124.782 78.2381H87.3196ZM133.713 87.8095C132.463 87.8095 131.24 87.4353 130.2 86.7341C129.161 86.033 128.35 85.0364 127.872 83.8705C127.393 82.7045 127.268 81.4215 127.512 80.1837C127.756 78.9459 128.358 77.8089 129.242 76.9166C130.127 76.0242 131.253 75.4164 132.48 75.1702C133.706 74.924 134.977 75.0504 136.133 75.5333C137.288 76.0163 138.275 76.8342 138.97 77.8835C139.665 78.9328 140.036 80.1665 140.036 81.4286C140.036 83.1209 139.37 84.7439 138.184 85.9406C136.998 87.1372 135.39 87.8095 133.713 87.8095ZM152.681 76.6429C152.681 77.0659 152.514 77.4717 152.218 77.7709C151.921 78.07 151.519 78.2381 151.1 78.2381H142.644C142.229 77.0611 141.59 75.9772 140.763 75.0476H152.681V76.6429Z" fill="black"/>
<path d="M100.342 37C99.1486 37 98.004 37.5057 97.1601 38.4059C96.3162 39.3061 95.8421 40.527 95.8421 41.8V64.2C95.8421 65.473 96.3162 66.6939 97.1601 67.5941C98.004 68.4943 99.1486 69 100.342 69C101.536 69 102.68 68.4943 103.524 67.5941C104.368 66.6939 104.842 65.473 104.842 64.2V41.8C104.842 40.527 104.368 39.3061 103.524 38.4059C102.68 37.5057 101.536 37 100.342 37ZM101.842 64.2C101.842 64.6243 101.684 65.0313 101.403 65.3314C101.121 65.6314 100.74 65.8 100.342 65.8C99.9443 65.8 99.5627 65.6314 99.2814 65.3314C99.0001 65.0313 98.8421 64.6243 98.8421 64.2V41.8C98.8421 41.3757 99.0001 40.9687 99.2814 40.6686C99.5627 40.3686 99.9443 40.2 100.342 40.2C100.74 40.2 101.121 40.3686 101.403 40.6686C101.684 40.9687 101.842 41.3757 101.842 41.8V64.2Z" fill="black"/>
<path d="M113.342 37C112.149 37 111.004 37.5057 110.16 38.4059C109.316 39.3061 108.842 40.527 108.842 41.8V64.2C108.842 65.473 109.316 66.6939 110.16 67.5941C111.004 68.4943 112.149 69 113.342 69C114.536 69 115.68 68.4943 116.524 67.5941C117.368 66.6939 117.842 65.473 117.842 64.2V41.8C117.842 40.527 117.368 39.3061 116.524 38.4059C115.68 37.5057 114.536 37 113.342 37ZM114.842 64.2C114.842 64.6243 114.684 65.0313 114.403 65.3314C114.121 65.6314 113.74 65.8 113.342 65.8C112.944 65.8 112.563 65.6314 112.281 65.3314C112 65.0313 111.842 64.6243 111.842 64.2V41.8C111.842 41.3757 112 40.9687 112.281 40.6686C112.563 40.3686 112.944 40.2 113.342 40.2C113.74 40.2 114.121 40.3686 114.403 40.6686C114.684 40.9687 114.842 41.3757 114.842 41.8V64.2Z" fill="black"/>
<path d="M125.842 37C124.516 37 123.244 37.5057 122.307 38.4059C121.369 39.3061 120.842 40.527 120.842 41.8V64.2C120.842 65.473 121.369 66.6939 122.307 67.5941C123.244 68.4943 124.516 69 125.842 69C127.168 69 128.44 68.4943 129.378 67.5941C130.315 66.6939 130.842 65.473 130.842 64.2V41.8C130.842 40.527 130.315 39.3061 129.378 38.4059C128.44 37.5057 127.168 37 125.842 37ZM127.509 64.2C127.509 64.6243 127.333 65.0313 127.021 65.3314C126.708 65.6314 126.284 65.8 125.842 65.8C125.4 65.8 124.976 65.6314 124.664 65.3314C124.351 65.0313 124.175 64.6243 124.175 64.2V41.8C124.175 41.3757 124.351 40.9687 124.664 40.6686C124.976 40.3686 125.4 40.2 125.842 40.2C126.284 40.2 126.708 40.3686 127.021 40.6686C127.333 40.9687 127.509 41.3757 127.509 41.8V64.2Z" fill="black"/>
<path d="M138.842 53C137.516 53 136.244 53.5057 135.307 54.4059C134.369 55.3061 133.842 56.527 133.842 57.8V64.2C133.842 65.473 134.369 66.6939 135.307 67.5941C136.244 68.4943 137.516 69 138.842 69C140.168 69 141.44 68.4943 142.378 67.5941C143.315 66.6939 143.842 65.473 143.842 64.2V57.8C143.842 56.527 143.315 55.3061 142.378 54.4059C141.44 53.5057 140.168 53 138.842 53ZM140.509 64.2C140.509 64.6243 140.333 65.0313 140.021 65.3314C139.708 65.6314 139.284 65.8 138.842 65.8C138.4 65.8 137.976 65.6314 137.664 65.3314C137.351 65.0313 137.175 64.6243 137.175 64.2V57.8C137.175 57.3757 137.351 56.9687 137.664 56.6686C137.976 56.3686 138.4 56.2 138.842 56.2C139.284 56.2 139.708 56.3686 140.021 56.6686C140.333 56.9687 140.509 57.3757 140.509 57.8V64.2Z" fill="black"/>
<path d="M78.8421 78C78.2488 78 77.6687 78.2053 77.1754 78.5899C76.682 78.9744 76.2975 79.5211 76.0705 80.1606C75.8434 80.8002 75.784 81.5039 75.8997 82.1828C76.0155 82.8618 76.3012 83.4854 76.7208 83.9749C77.1403 84.4644 77.6749 84.7977 78.2568 84.9327C78.8388 85.0678 79.442 84.9985 79.9902 84.7336C80.5383 84.4687 81.0069 84.0201 81.3365 83.4445C81.6662 82.8689 81.8421 82.1922 81.8421 81.5C81.8421 80.5717 81.526 79.6815 80.9634 79.0251C80.4008 78.3687 79.6378 78 78.8421 78Z" fill="black"/>
<path d="M133.842 78C133.249 78 132.669 78.2053 132.175 78.5899C131.682 78.9744 131.298 79.5211 131.07 80.1606C130.843 80.8002 130.784 81.5039 130.9 82.1828C131.016 82.8618 131.301 83.4854 131.721 83.9749C132.14 84.4644 132.675 84.7977 133.257 84.9327C133.839 85.0678 134.442 84.9985 134.99 84.7336C135.538 84.4687 136.007 84.0201 136.337 83.4445C136.666 82.8689 136.842 82.1922 136.842 81.5C136.842 80.5717 136.526 79.6815 135.963 79.0251C135.401 78.3687 134.638 78 133.842 78Z" fill="black"/>
<path d="M76.4761 140L71.7061 127.04H74.1541L77.8621 137.75L81.5701 127.04H83.8921L79.1401 140H76.4761ZM88.413 140.18C85.497 140.18 83.571 138.218 83.571 135.392C83.571 132.566 85.515 130.64 88.377 130.64C91.113 130.64 92.877 132.458 92.877 135.194C92.877 135.554 92.841 135.824 92.805 136.094H85.875C86.073 137.642 86.955 138.47 88.431 138.47C89.403 138.47 90.123 138.11 90.483 137.372H92.625C92.031 139.118 90.573 140.18 88.413 140.18ZM88.341 132.35C87.045 132.35 86.181 133.106 85.929 134.51H90.573C90.447 133.07 89.637 132.35 88.341 132.35ZM94.5742 140V127.04H96.8422V132.404C97.5082 131.324 98.6422 130.64 100.136 130.64C102.134 130.64 103.304 131.846 103.304 133.736V140H101.018V134.204C101.018 133.07 100.442 132.494 99.3262 132.494C97.8682 132.494 96.8422 133.538 96.8422 135.05V140H94.5742ZM105.417 129.308V126.806H107.901V129.308H105.417ZM105.525 140V130.82H107.793V140H105.525ZM114.144 140.18C111.39 140.18 109.446 138.164 109.446 135.392C109.446 132.638 111.39 130.64 114.144 130.64C116.43 130.64 118.122 132.008 118.464 134.024H116.286C116.016 133.052 115.224 132.458 114.18 132.458C112.704 132.458 111.804 133.61 111.804 135.392C111.804 137.192 112.722 138.362 114.18 138.362C115.224 138.362 116.016 137.786 116.286 136.796H118.464C118.122 138.812 116.412 140.18 114.144 140.18ZM120.098 140V127.04H122.366V140H120.098ZM128.895 140.18C125.979 140.18 124.053 138.218 124.053 135.392C124.053 132.566 125.997 130.64 128.859 130.64C131.595 130.64 133.359 132.458 133.359 135.194C133.359 135.554 133.323 135.824 133.287 136.094H126.357C126.555 137.642 127.437 138.47 128.913 138.47C129.885 138.47 130.605 138.11 130.965 137.372H133.107C132.513 139.118 131.055 140.18 128.895 140.18ZM128.823 132.35C127.527 132.35 126.663 133.106 126.411 134.51H131.055C130.929 133.07 130.119 132.35 128.823 132.35ZM138.619 140.18C136.081 140.18 134.479 139.064 134.335 137.156H136.405C136.531 138.092 137.305 138.578 138.619 138.578C139.789 138.578 140.383 138.2 140.383 137.498C140.383 136.994 140.113 136.67 139.177 136.472L137.701 136.13C135.667 135.698 134.731 134.78 134.731 133.376C134.731 131.666 136.117 130.64 138.421 130.64C140.707 130.64 142.147 131.666 142.309 133.376H140.239C140.131 132.638 139.465 132.242 138.367 132.242C137.341 132.242 136.801 132.584 136.801 133.196C136.801 133.682 137.161 133.988 138.133 134.222L139.717 134.582C141.535 134.978 142.453 136.04 142.453 137.426C142.453 139.172 141.049 140.18 138.619 140.18Z" fill="#10172C"/>
</g>
<defs>
<filter id="filter0_d_27_121" x="0" y="0" width="214" height="201" filterUnits="userSpaceOnUse" color-interpolation-filters="sRGB">
<feFlood flood-opacity="0" result="BackgroundImageFix"/>
<feColorMatrix in="SourceAlpha" type="matrix" values="0 0 0 0 0 0 0 0 0 0 0 0 0 0 0 0 0 0 127 0" result="hardAlpha"/>
<feMorphology radius="24" operator="erode" in="SourceAlpha" result="effect1_dropShadow_27_121"/>
<feOffset dy="27"/>
<feGaussianBlur stdDeviation="18.5"/>
<feComposite in2="hardAlpha" operator="out"/>
<feColorMatrix type="matrix" values="0 0 0 0 0.294118 0 0 0 0 0.619608 0 0 0 0 0.92549 0 0 0 0.5 0"/>
<feBlend mode="normal" in2="BackgroundImageFix" result="effect1_dropShadow_27_121"/>
<feBlend mode="normal" in="SourceGraphic" in2="effect1_dropShadow_27_121" result="shape"/>
</filter>
</defs>
</svg>
